<svg aria-roledescription="er" role="graphics-document document" viewBox="0 0 680.25 564.5" style="max-width: 680.25px; background-color: white;" xmlns:xlink="http://www.w3.org/1999/xlink" xmlns="http://www.w3.org/2000/svg" width="100%" id="my-svg"><style>#my-svg{font-family:"trebuchet ms",verdana,arial,sans-serif;font-size:16px;fill:#000000;}#my-svg .error-icon{fill:#552222;}#my-svg .error-text{fill:#552222;stroke:#552222;}#my-svg .edge-thickness-normal{stroke-width:2px;}#my-svg .edge-thickness-thick{stroke-width:3.5px;}#my-svg .edge-pattern-solid{stroke-dasharray:0;}#my-svg .edge-pattern-dashed{stroke-dasharray:3;}#my-svg .edge-pattern-dotted{stroke-dasharray:2;}#my-svg .marker{fill:#000000;stroke:#000000;}#my-svg .marker.cross{stroke:#000000;}#my-svg svg{font-family:"trebuchet ms",verdana,arial,sans-serif;font-size:16px;}#my-svg .entityBox{fill:#cde498;stroke:#13540c;}#my-svg .attributeBoxOdd{fill:#ffffff;stroke:#13540c;}#my-svg .attributeBoxEven{fill:#f2f2f2;stroke:#13540c;}#my-svg .relationshipLabelBox{fill:hsl(78.1578947368, 58.4615384615%, 84.5098039216%);opacity:0.7;background-color:hsl(78.1578947368, 58.4615384615%, 84.5098039216%);}#my-svg .relationshipLabelBox rect{opacity:0.5;}#my-svg .relationshipLine{stroke:#000000;}#my-svg .entityTitleText{text-anchor:middle;font-size:18px;fill:#000000;}#my-svg #MD_PARENT_START{fill:#f5f5f5!important;stroke:#000000!important;stroke-width:1;}#my-svg #MD_PARENT_END{fill:#f5f5f5!important;stroke:#000000!important;stroke-width:1;}#my-svg :root{--mermaid-font-family:"trebuchet ms",verdana,arial,sans-serif;}</style><g/><defs><marker orient="auto" markerHeight="240" markerWidth="190" refY="7" refX="0" id="MD_PARENT_START"><path d="M 18,7 L9,13 L1,7 L9,1 Z"/></marker></defs><defs><marker orient="auto" markerHeight="28" markerWidth="20" refY="7" refX="19" id="MD_PARENT_END"><path d="M 18,7 L9,13 L1,7 L9,1 Z"/></marker></defs><defs><marker orient="auto" markerHeight="18" markerWidth="18" refY="9" refX="0" id="ONLY_ONE_START"><path d="M9,0 L9,18 M15,0 L15,18" fill="none" stroke="gray"/></marker></defs><defs><marker orient="auto" markerHeight="18" markerWidth="18" refY="9" refX="18" id="ONLY_ONE_END"><path d="M3,0 L3,18 M9,0 L9,18" fill="none" stroke="gray"/></marker></defs><defs><marker orient="auto" markerHeight="18" markerWidth="30" refY="9" refX="0" id="ZERO_OR_ONE_START"><circle r="6" cy="9" cx="21" fill="white" stroke="gray"/><path d="M9,0 L9,18" fill="none" stroke="gray"/></marker></defs><defs><marker orient="auto" markerHeight="18" markerWidth="30" refY="9" refX="30" id="ZERO_OR_ONE_END"><circle r="6" cy="9" cx="9" fill="white" stroke="gray"/><path d="M21,0 L21,18" fill="none" stroke="gray"/></marker></defs><defs><marker orient="auto" markerHeight="36" markerWidth="45" refY="18" refX="18" id="ONE_OR_MORE_START"><path d="M0,18 Q 18,0 36,18 Q 18,36 0,18 M42,9 L42,27" fill="none" stroke="gray"/></marker></defs><defs><marker orient="auto" markerHeight="36" markerWidth="45" refY="18" refX="27" id="ONE_OR_MORE_END"><path d="M3,9 L3,27 M9,18 Q27,0 45,18 Q27,36 9,18" fill="none" stroke="gray"/></marker></defs><defs><marker orient="auto" markerHeight="36" markerWidth="57" refY="18" refX="18" id="ZERO_OR_MORE_START"><circle r="6" cy="18" cx="48" fill="white" stroke="gray"/><path d="M0,18 Q18,0 36,18 Q18,36 0,18" fill="none" stroke="gray"/></marker></defs><defs><marker orient="auto" markerHeight="36" markerWidth="57" refY="18" refX="39" id="ZERO_OR_MORE_END"><circle r="6" cy="18" cx="9" fill="white" stroke="gray"/><path d="M21,18 Q39,0 57,18 Q39,36 21,18" fill="none" stroke="gray"/></marker></defs><path style="stroke: gray; fill: none;" marker-start="url(#ZERO_OR_ONE_START)" marker-end="url(#ZERO_OR_ONE_END)" d="M325.5546875,199.24957130958796L285.3828125,222.4579760913233C245.2109375,245.66638087305864,164.8671875,292.0831904365293,124.6953125,327.29159521826466C84.5234375,362.5,84.5234375,386.5,84.5234375,398.5L84.5234375,410.5" class="er relationshipLine"/><path style="stroke: gray; fill: none;" marker-start="url(#ZERO_OR_MORE_START)" marker-end="url(#ZERO_OR_MORE_END)" d="M325.5546875,250.98240215373679L313.8095703125,265.5686684614473C302.064453125,280.1549347691578,278.57421875,309.32746738457894,273.39821497599286,335.8304003589561C268.22221120198566,362.3333333333333,281.3604380289714,386.1666666666667,287.9295514424642,398.0833333333333L294.49866485595703,410" class="er relationshipLine"/><path style="stroke: gray; fill: none;" marker-start="url(#ZERO_OR_MORE_START)" marker-end="url(#ZERO_OR_MORE_END)" d="M476.30827043758484,288.5L480.83111078132066,296.8333333333333C485.35395112505654,305.1666666666667,494.39963181252824,321.8333333333333,503.987627185561,338.5C513.5756225585938,355.1666666666667,523.7059326171875,371.8333333333333,528.7710876464844,380.1666666666667L533.8362426757812,388.5" class="er relationshipLine"/><path style="stroke: gray; fill: none;" marker-start="url(#ZERO_OR_ONE_START)" marker-end="url(#ONLY_ONE_END)" d="M359.9862823486328,410L367.22945404052734,398.0833333333333C374.4726257324219,386.1666666666667,388.95896911621094,362.3333333333333,396.20214080810547,342.0833333333333C403.4453125,321.8333333333333,403.4453125,305.1666666666667,403.4453125,296.8333333333333L403.4453125,288.5" class="er relationshipLine"/><path style="stroke: gray; fill: none;" marker-start="url(#ZERO_OR_ONE_START)" marker-end="url(#ONLY_ONE_END)" d="M611.71484375,388.5L614.9700520833334,380.1666666666667C618.2252604166666,371.8333333333333,624.7356770833334,355.1666666666667,603.005859375,326.6249256934799C581.2760416666666,298.0831847202931,531.3059895833334,257.66636944058627,506.3209635416667,237.45796180073282L481.3359375,217.24955416087934" class="er relationshipLine"/><g transform="translate(125.5546875,120.25 )" id="entity-ProviderType-dafe6976-97f2-565c-9bcf-a9c639f33df4"><rect height="68" width="100" y="0" x="0" class="er entityBox"/><text style="dominant-baseline: middle; text-anchor: middle; font-size: 12px;" transform="translate(50,12)" y="0" x="0" id="text-entity-ProviderType-dafe6976-97f2-565c-9bcf-a9c639f33df4" class="er entityLabel">ProviderType</text><rect height="22" width="50" y="24" x="0" class="er attributeBoxOdd"/><text style="dominant-baseline: middle; font-size: 10.2px;" transform="translate(5,35)" y="0" x="0" id="text-entity-ProviderType-dafe6976-97f2-565c-9bcf-a9c639f33df4-attr-1-type" class="er entityLabel">OIDC</text><rect height="22" width="50" y="24" x="50" class="er attributeBoxOdd"/><text style="dominant-baseline: middle; font-size: 10.2px;" transform="translate(55,35)" y="0" x="0" id="text-entity-ProviderType-dafe6976-97f2-565c-9bcf-a9c639f33df4-attr-1-name" class="er entityLabel">OIDC</text><rect height="22" width="50" y="46" x="0" class="er attributeBoxEven"/><text style="dominant-baseline: middle; font-size: 10.2px;" transform="translate(5,57)" y="0" x="0" id="text-entity-ProviderType-dafe6976-97f2-565c-9bcf-a9c639f33df4-attr-2-type" class="er entityLabel">OAUTH2</text><rect height="22" width="50" y="46" x="50" class="er attributeBoxEven"/><text style="dominant-baseline: middle; font-size: 10.2px;" transform="translate(55,57)" y="0" x="0" id="text-entity-ProviderType-dafe6976-97f2-565c-9bcf-a9c639f33df4-attr-2-name" class="er entityLabel">OAUTH2</text></g><g transform="translate(20,410.5 )" id="entity-Pronouns-e56d72c9-e519-5ea0-bda9-5ec2816bf931"><rect height="112" width="129.046875" y="0" x="0" class="er entityBox"/><text style="dominant-baseline: middle; text-anchor: middle; font-size: 12px;" transform="translate(64.5234375,12)" y="0" x="0" id="text-entity-Pronouns-e56d72c9-e519-5ea0-bda9-5ec2816bf931" class="er entityLabel">Pronouns</text><rect height="22" width="64.5234375" y="24" x="0" class="er attributeBoxOdd"/><text style="dominant-baseline: middle; font-size: 10.2px;" transform="translate(5,35)" y="0" x="0" id="text-entity-Pronouns-e56d72c9-e519-5ea0-bda9-5ec2816bf931-attr-1-type" class="er entityLabel">HE_HIM</text><rect height="22" width="64.5234375" y="24" x="64.5234375" class="er attributeBoxOdd"/><text style="dominant-baseline: middle; font-size: 10.2px;" transform="translate(69.5234375,35)" y="0" x="0" id="text-entity-Pronouns-e56d72c9-e519-5ea0-bda9-5ec2816bf931-attr-1-name" class="er entityLabel">HE_HIM</text><rect height="22" width="64.5234375" y="46" x="0" class="er attributeBoxEven"/><text style="dominant-baseline: middle; font-size: 10.2px;" transform="translate(5,57)" y="0" x="0" id="text-entity-Pronouns-e56d72c9-e519-5ea0-bda9-5ec2816bf931-attr-2-type" class="er entityLabel">SHE_HER</text><rect height="22" width="64.5234375" y="46" x="64.5234375" class="er attributeBoxEven"/><text style="dominant-baseline: middle; font-size: 10.2px;" transform="translate(69.5234375,57)" y="0" x="0" id="text-entity-Pronouns-e56d72c9-e519-5ea0-bda9-5ec2816bf931-attr-2-name" class="er entityLabel">SHE_HER</text><rect height="22" width="64.5234375" y="68" x="0" class="er attributeBoxOdd"/><text style="dominant-baseline: middle; font-size: 10.2px;" transform="translate(5,79)" y="0" x="0" id="text-entity-Pronouns-e56d72c9-e519-5ea0-bda9-5ec2816bf931-attr-3-type" class="er entityLabel">THEY_THEM</text><rect height="22" width="64.5234375" y="68" x="64.5234375" class="er attributeBoxOdd"/><text style="dominant-baseline: middle; font-size: 10.2px;" transform="translate(69.5234375,79)" y="0" x="0" id="text-entity-Pronouns-e56d72c9-e519-5ea0-bda9-5ec2816bf931-attr-3-name" class="er entityLabel">THEY_THEM</text><rect height="22" width="64.5234375" y="90" x="0" class="er attributeBoxEven"/><text style="dominant-baseline: middle; font-size: 10.2px;" transform="translate(5,101)" y="0" x="0" id="text-entity-Pronouns-e56d72c9-e519-5ea0-bda9-5ec2816bf931-attr-4-type" class="er entityLabel">OTHER</text><rect height="22" width="64.5234375" y="90" x="64.5234375" class="er attributeBoxEven"/><text style="dominant-baseline: middle; font-size: 10.2px;" transform="translate(69.5234375,101)" y="0" x="0" id="text-entity-Pronouns-e56d72c9-e519-5ea0-bda9-5ec2816bf931-attr-4-name" class="er entityLabel">OTHER</text></g><g transform="translate(325.5546875,20 )" id="entity-User-818c511a-4a32-5484-ba70-875d765a9175"><rect height="268.5" width="155.78125" y="0" x="0" class="er entityBox"/><text style="dominant-baseline: middle; text-anchor: middle; font-size: 12px;" transform="translate(77.890625,12)" y="0" x="0" id="text-entity-User-818c511a-4a32-5484-ba70-875d765a9175" class="er entityLabel">User</text><rect height="22.5" width="53.6640625" y="24" x="0" class="er attributeBoxOdd"/><text style="dominant-baseline: middle; font-size: 10.2px;" transform="translate(5,35.25)" y="0" x="0" id="text-entity-User-818c511a-4a32-5484-ba70-875d765a9175-attr-1-type" class="er entityLabel">String</text><rect height="22.5" width="79.6171875" y="24" x="53.6640625" class="er attributeBoxOdd"/><text style="dominant-baseline: middle; font-size: 10.2px;" transform="translate(58.6640625,35.25)" y="0" x="0" id="text-entity-User-818c511a-4a32-5484-ba70-875d765a9175-attr-1-name" class="er entityLabel">id</text><rect height="22.5" width="22.5" y="24" x="133.28125" class="er attributeBoxOdd"/><text style="dominant-baseline: middle; font-size: 10.2px;" transform="translate(138.28125,35.25)" y="0" x="0" id="text-entity-User-818c511a-4a32-5484-ba70-875d765a9175-attr-1-comment" class="er entityLabel">🗝️</text><rect height="22" width="53.6640625" y="46.5" x="0" class="er attributeBoxEven"/><text style="dominant-baseline: middle; font-size: 10.2px;" transform="translate(5,57.5)" y="0" x="0" id="text-entity-User-818c511a-4a32-5484-ba70-875d765a9175-attr-2-type" class="er entityLabel">DateTime</text><rect height="22" width="79.6171875" y="46.5" x="53.6640625" class="er attributeBoxEven"/><text style="dominant-baseline: middle; font-size: 10.2px;" transform="translate(58.6640625,57.5)" y="0" x="0" id="text-entity-User-818c511a-4a32-5484-ba70-875d765a9175-attr-2-name" class="er entityLabel">createdAt</text><rect height="22" width="22.5" y="46.5" x="133.28125" class="er attributeBoxEven"/><text style="dominant-baseline: middle; font-size: 10.2px;" transform="translate(138.28125,57.5)" y="0" x="0" id="text-entity-User-818c511a-4a32-5484-ba70-875d765a9175-attr-2-comment" class="er entityLabel"/><rect height="22" width="53.6640625" y="68.5" x="0" class="er attributeBoxOdd"/><text style="dominant-baseline: middle; font-size: 10.2px;" transform="translate(5,79.5)" y="0" x="0" id="text-entity-User-818c511a-4a32-5484-ba70-875d765a9175-attr-3-type" class="er entityLabel">DateTime</text><rect height="22" width="79.6171875" y="68.5" x="53.6640625" class="er attributeBoxOdd"/><text style="dominant-baseline: middle; font-size: 10.2px;" transform="translate(58.6640625,79.5)" y="0" x="0" id="text-entity-User-818c511a-4a32-5484-ba70-875d765a9175-attr-3-name" class="er entityLabel">updatedAt</text><rect height="22" width="22.5" y="68.5" x="133.28125" class="er attributeBoxOdd"/><text style="dominant-baseline: middle; font-size: 10.2px;" transform="translate(138.28125,79.5)" y="0" x="0" id="text-entity-User-818c511a-4a32-5484-ba70-875d765a9175-attr-3-comment" class="er entityLabel"/><rect height="22" width="53.6640625" y="90.5" x="0" class="er attributeBoxEven"/><text style="dominant-baseline: middle; font-size: 10.2px;" transform="translate(5,101.5)" y="0" x="0" id="text-entity-User-818c511a-4a32-5484-ba70-875d765a9175-attr-4-type" class="er entityLabel">String</text><rect height="22" width="79.6171875" y="90.5" x="53.6640625" class="er attributeBoxEven"/><text style="dominant-baseline: middle; font-size: 10.2px;" transform="translate(58.6640625,101.5)" y="0" x="0" id="text-entity-User-818c511a-4a32-5484-ba70-875d765a9175-attr-4-name" class="er entityLabel">email</text><rect height="22" width="22.5" y="90.5" x="133.28125" class="er attributeBoxEven"/><text style="dominant-baseline: middle; font-size: 10.2px;" transform="translate(138.28125,101.5)" y="0" x="0" id="text-entity-User-818c511a-4a32-5484-ba70-875d765a9175-attr-4-comment" class="er entityLabel"/><rect height="22.5" width="53.6640625" y="112.5" x="0" class="er attributeBoxOdd"/><text style="dominant-baseline: middle; font-size: 10.2px;" transform="translate(5,123.75)" y="0" x="0" id="text-entity-User-818c511a-4a32-5484-ba70-875d765a9175-attr-5-type" class="er entityLabel">String</text><rect height="22.5" width="79.6171875" y="112.5" x="53.6640625" class="er attributeBoxOdd"/><text style="dominant-baseline: middle; font-size: 10.2px;" transform="translate(58.6640625,123.75)" y="0" x="0" id="text-entity-User-818c511a-4a32-5484-ba70-875d765a9175-attr-5-name" class="er entityLabel">preferredName</text><rect height="22.5" width="22.5" y="112.5" x="133.28125" class="er attributeBoxOdd"/><text style="dominant-baseline: middle; font-size: 10.2px;" transform="translate(138.28125,123.75)" y="0" x="0" id="text-entity-User-818c511a-4a32-5484-ba70-875d765a9175-attr-5-comment" class="er entityLabel">❓</text><rect height="22" width="53.6640625" y="135" x="0" class="er attributeBoxEven"/><text style="dominant-baseline: middle; font-size: 10.2px;" transform="translate(5,146)" y="0" x="0" id="text-entity-User-818c511a-4a32-5484-ba70-875d765a9175-attr-6-type" class="er entityLabel">String</text><rect height="22" width="79.6171875" y="135" x="53.6640625" class="er attributeBoxEven"/><text style="dominant-baseline: middle; font-size: 10.2px;" transform="translate(58.6640625,146)" y="0" x="0" id="text-entity-User-818c511a-4a32-5484-ba70-875d765a9175-attr-6-name" class="er entityLabel">firstName</text><rect height="22" width="22.5" y="135" x="133.28125" class="er attributeBoxEven"/><text style="dominant-baseline: middle; font-size: 10.2px;" transform="translate(138.28125,146)" y="0" x="0" id="text-entity-User-818c511a-4a32-5484-ba70-875d765a9175-attr-6-comment" class="er entityLabel"/><rect height="22" width="53.6640625" y="157" x="0" class="er attributeBoxOdd"/><text style="dominant-baseline: middle; font-size: 10.2px;" transform="translate(5,168)" y="0" x="0" id="text-entity-User-818c511a-4a32-5484-ba70-875d765a9175-attr-7-type" class="er entityLabel">String</text><rect height="22" width="79.6171875" y="157" x="53.6640625" class="er attributeBoxOdd"/><text style="dominant-baseline: middle; font-size: 10.2px;" transform="translate(58.6640625,168)" y="0" x="0" id="text-entity-User-818c511a-4a32-5484-ba70-875d765a9175-attr-7-name" class="er entityLabel">lastName</text><rect height="22" width="22.5" y="157" x="133.28125" class="er attributeBoxOdd"/><text style="dominant-baseline: middle; font-size: 10.2px;" transform="translate(138.28125,168)" y="0" x="0" id="text-entity-User-818c511a-4a32-5484-ba70-875d765a9175-attr-7-comment" class="er entityLabel"/><rect height="22.5" width="53.6640625" y="179" x="0" class="er attributeBoxEven"/><text style="dominant-baseline: middle; font-size: 10.2px;" transform="translate(5,190.25)" y="0" x="0" id="text-entity-User-818c511a-4a32-5484-ba70-875d765a9175-attr-8-type" class="er entityLabel">Pronouns</text><rect height="22.5" width="79.6171875" y="179" x="53.6640625" class="er attributeBoxEven"/><text style="dominant-baseline: middle; font-size: 10.2px;" transform="translate(58.6640625,190.25)" y="0" x="0" id="text-entity-User-818c511a-4a32-5484-ba70-875d765a9175-attr-8-name" class="er entityLabel">pronouns</text><rect height="22.5" width="22.5" y="179" x="133.28125" class="er attributeBoxEven"/><text style="dominant-baseline: middle; font-size: 10.2px;" transform="translate(138.28125,190.25)" y="0" x="0" id="text-entity-User-818c511a-4a32-5484-ba70-875d765a9175-attr-8-comment" class="er entityLabel">❓</text><rect height="22.5" width="53.6640625" y="201.5" x="0" class="er attributeBoxOdd"/><text style="dominant-baseline: middle; font-size: 10.2px;" transform="translate(5,212.75)" y="0" x="0" id="text-entity-User-818c511a-4a32-5484-ba70-875d765a9175-attr-9-type" class="er entityLabel">String</text><rect height="22.5" width="79.6171875" y="201.5" x="53.6640625" class="er attributeBoxOdd"/><text style="dominant-baseline: middle; font-size: 10.2px;" transform="translate(58.6640625,212.75)" y="0" x="0" id="text-entity-User-818c511a-4a32-5484-ba70-875d765a9175-attr-9-name" class="er entityLabel">otherPronouns</text><rect height="22.5" width="22.5" y="201.5" x="133.28125" class="er attributeBoxOdd"/><text style="dominant-baseline: middle; font-size: 10.2px;" transform="translate(138.28125,212.75)" y="0" x="0" id="text-entity-User-818c511a-4a32-5484-ba70-875d765a9175-attr-9-comment" class="er entityLabel">❓</text><rect height="22.5" width="53.6640625" y="224" x="0" class="er attributeBoxEven"/><text style="dominant-baseline: middle; font-size: 10.2px;" transform="translate(5,235.25)" y="0" x="0" id="text-entity-User-818c511a-4a32-5484-ba70-875d765a9175-attr-10-type" class="er entityLabel">String</text><rect height="22.5" width="79.6171875" y="224" x="53.6640625" class="er attributeBoxEven"/><text style="dominant-baseline: middle; font-size: 10.2px;" transform="translate(58.6640625,235.25)" y="0" x="0" id="text-entity-User-818c511a-4a32-5484-ba70-875d765a9175-attr-10-name" class="er entityLabel">avatarUrl</text><rect height="22.5" width="22.5" y="224" x="133.28125" class="er attributeBoxEven"/><text style="dominant-baseline: middle; font-size: 10.2px;" transform="translate(138.28125,235.25)" y="0" x="0" id="text-entity-User-818c511a-4a32-5484-ba70-875d765a9175-attr-10-comment" class="er entityLabel">❓</text><rect height="22" width="53.6640625" y="246.5" x="0" class="er attributeBoxOdd"/><text style="dominant-baseline: middle; font-size: 10.2px;" transform="translate(5,257.5)" y="0" x="0" id="text-entity-User-818c511a-4a32-5484-ba70-875d765a9175-attr-11-type" class="er entityLabel">Boolean</text><rect height="22" width="79.6171875" y="246.5" x="53.6640625" class="er attributeBoxOdd"/><text style="dominant-baseline: middle; font-size: 10.2px;" transform="translate(58.6640625,257.5)" y="0" x="0" id="text-entity-User-818c511a-4a32-5484-ba70-875d765a9175-attr-11-name" class="er entityLabel">superuser</text><rect height="22" width="22.5" y="246.5" x="133.28125" class="er attributeBoxOdd"/><text style="dominant-baseline: middle; font-size: 10.2px;" transform="translate(138.28125,257.5)" y="0" x="0" id="text-entity-User-818c511a-4a32-5484-ba70-875d765a9175-attr-11-comment" class="er entityLabel"/></g><g transform="translate(249.046875,410 )" id="entity-UserAuthentication-bd197d83-1cd4-5e1d-8243-7cb1c705c199"><rect height="113" width="153.1953125" y="0" x="0" class="er entityBox"/><text style="dominant-baseline: middle; text-anchor: middle; font-size: 12px;" transform="translate(76.59765625,12)" y="0" x="0" id="text-entity-UserAuthentication-bd197d83-1cd4-5e1d-8243-7cb1c705c199" class="er entityLabel">UserAuthentication</text><rect height="22" width="53.6640625" y="24" x="0" class="er attributeBoxOdd"/><text style="dominant-baseline: middle; font-size: 10.2px;" transform="translate(5,35)" y="0" x="0" id="text-entity-UserAuthentication-bd197d83-1cd4-5e1d-8243-7cb1c705c199-attr-1-type" class="er entityLabel">DateTime</text><rect height="22" width="77.03125" y="24" x="53.6640625" class="er attributeBoxOdd"/><text style="dominant-baseline: middle; font-size: 10.2px;" transform="translate(58.6640625,35)" y="0" x="0" id="text-entity-UserAuthentication-bd197d83-1cd4-5e1d-8243-7cb1c705c199-attr-1-name" class="er entityLabel">createdAt</text><rect height="22" width="22.5" y="24" x="130.6953125" class="er attributeBoxOdd"/><text style="dominant-baseline: middle; font-size: 10.2px;" transform="translate(135.6953125,35)" y="0" x="0" id="text-entity-UserAuthentication-bd197d83-1cd4-5e1d-8243-7cb1c705c199-attr-1-comment" class="er entityLabel"/><rect height="22" width="53.6640625" y="46" x="0" class="er attributeBoxEven"/><text style="dominant-baseline: middle; font-size: 10.2px;" transform="translate(5,57)" y="0" x="0" id="text-entity-UserAuthentication-bd197d83-1cd4-5e1d-8243-7cb1c705c199-attr-2-type" class="er entityLabel">DateTime</text><rect height="22" width="77.03125" y="46" x="53.6640625" class="er attributeBoxEven"/><text style="dominant-baseline: middle; font-size: 10.2px;" transform="translate(58.6640625,57)" y="0" x="0" id="text-entity-UserAuthentication-bd197d83-1cd4-5e1d-8243-7cb1c705c199-attr-2-name" class="er entityLabel">updatedAt</text><rect height="22" width="22.5" y="46" x="130.6953125" class="er attributeBoxEven"/><text style="dominant-baseline: middle; font-size: 10.2px;" transform="translate(135.6953125,57)" y="0" x="0" id="text-entity-UserAuthentication-bd197d83-1cd4-5e1d-8243-7cb1c705c199-attr-2-comment" class="er entityLabel"/><rect height="22.5" width="53.6640625" y="68" x="0" class="er attributeBoxOdd"/><text style="dominant-baseline: middle; font-size: 10.2px;" transform="translate(5,79.25)" y="0" x="0" id="text-entity-UserAuthentication-bd197d83-1cd4-5e1d-8243-7cb1c705c199-attr-3-type" class="er entityLabel">String</text><rect height="22.5" width="77.03125" y="68" x="53.6640625" class="er attributeBoxOdd"/><text style="dominant-baseline: middle; font-size: 10.2px;" transform="translate(58.6640625,79.25)" y="0" x="0" id="text-entity-UserAuthentication-bd197d83-1cd4-5e1d-8243-7cb1c705c199-attr-3-name" class="er entityLabel">provider</text><rect height="22.5" width="22.5" y="68" x="130.6953125" class="er attributeBoxOdd"/><text style="dominant-baseline: middle; font-size: 10.2px;" transform="translate(135.6953125,79.25)" y="0" x="0" id="text-entity-UserAuthentication-bd197d83-1cd4-5e1d-8243-7cb1c705c199-attr-3-comment" class="er entityLabel">🗝️</text><rect height="22.5" width="53.6640625" y="90.5" x="0" class="er attributeBoxEven"/><text style="dominant-baseline: middle; font-size: 10.2px;" transform="translate(5,101.75)" y="0" x="0" id="text-entity-UserAuthentication-bd197d83-1cd4-5e1d-8243-7cb1c705c199-attr-4-type" class="er entityLabel">String</text><rect height="22.5" width="77.03125" y="90.5" x="53.6640625" class="er attributeBoxEven"/><text style="dominant-baseline: middle; font-size: 10.2px;" transform="translate(58.6640625,101.75)" y="0" x="0" id="text-entity-UserAuthentication-bd197d83-1cd4-5e1d-8243-7cb1c705c199-attr-4-name" class="er entityLabel">providerUserId</text><rect height="22.5" width="22.5" y="90.5" x="130.6953125" class="er attributeBoxEven"/><text style="dominant-baseline: middle; font-size: 10.2px;" transform="translate(135.6953125,101.75)" y="0" x="0" id="text-entity-UserAuthentication-bd197d83-1cd4-5e1d-8243-7cb1c705c199-attr-4-comment" class="er entityLabel">🗝️</text></g><g transform="translate(502.2421875,388.5 )" id="entity-UserPermissions-11eadeed-34e2-57e9-b889-d11b5d4e49d3"><rect height="156" width="158.0078125" y="0" x="0" class="er entityBox"/><text style="dominant-baseline: middle; text-anchor: middle; font-size: 12px;" transform="translate(79.00390625,12)" y="0" x="0" id="text-entity-UserPermissions-11eadeed-34e2-57e9-b889-d11b5d4e49d3" class="er entityLabel">UserPermissions</text><rect height="22" width="53.6640625" y="24" x="0" class="er attributeBoxOdd"/><text style="dominant-baseline: middle; font-size: 10.2px;" transform="translate(5,35)" y="0" x="0" id="text-entity-UserPermissions-11eadeed-34e2-57e9-b889-d11b5d4e49d3-attr-1-type" class="er entityLabel">DateTime</text><rect height="22" width="104.34375" y="24" x="53.6640625" class="er attributeBoxOdd"/><text style="dominant-baseline: middle; font-size: 10.2px;" transform="translate(58.6640625,35)" y="0" x="0" id="text-entity-UserPermissions-11eadeed-34e2-57e9-b889-d11b5d4e49d3-attr-1-name" class="er entityLabel">createdAt</text><rect height="22" width="53.6640625" y="46" x="0" class="er attributeBoxEven"/><text style="dominant-baseline: middle; font-size: 10.2px;" transform="translate(5,57)" y="0" x="0" id="text-entity-UserPermissions-11eadeed-34e2-57e9-b889-d11b5d4e49d3-attr-2-type" class="er entityLabel">DateTime</text><rect height="22" width="104.34375" y="46" x="53.6640625" class="er attributeBoxEven"/><text style="dominant-baseline: middle; font-size: 10.2px;" transform="translate(58.6640625,57)" y="0" x="0" id="text-entity-UserPermissions-11eadeed-34e2-57e9-b889-d11b5d4e49d3-attr-2-name" class="er entityLabel">updatedAt</text><rect height="22" width="53.6640625" y="68" x="0" class="er attributeBoxOdd"/><text style="dominant-baseline: middle; font-size: 10.2px;" transform="translate(5,79)" y="0" x="0" id="text-entity-UserPermissions-11eadeed-34e2-57e9-b889-d11b5d4e49d3-attr-3-type" class="er entityLabel">Boolean</text><rect height="22" width="104.34375" y="68" x="53.6640625" class="er attributeBoxOdd"/><text style="dominant-baseline: middle; font-size: 10.2px;" transform="translate(58.6640625,79)" y="0" x="0" id="text-entity-UserPermissions-11eadeed-34e2-57e9-b889-d11b5d4e49d3-attr-3-name" class="er entityLabel">manageMembers</text><rect height="22" width="53.6640625" y="90" x="0" class="er attributeBoxEven"/><text style="dominant-baseline: middle; font-size: 10.2px;" transform="translate(5,101)" y="0" x="0" id="text-entity-UserPermissions-11eadeed-34e2-57e9-b889-d11b5d4e49d3-attr-4-type" class="er entityLabel">Boolean</text><rect height="22" width="104.34375" y="90" x="53.6640625" class="er attributeBoxEven"/><text style="dominant-baseline: middle; font-size: 10.2px;" transform="translate(58.6640625,101)" y="0" x="0" id="text-entity-UserPermissions-11eadeed-34e2-57e9-b889-d11b5d4e49d3-attr-4-name" class="er entityLabel">manageMemberships</text><rect height="22" width="53.6640625" y="112" x="0" class="er attributeBoxOdd"/><text style="dominant-baseline: middle; font-size: 10.2px;" transform="translate(5,123)" y="0" x="0" id="text-entity-UserPermissions-11eadeed-34e2-57e9-b889-d11b5d4e49d3-attr-5-type" class="er entityLabel">Boolean</text><rect height="22" width="104.34375" y="112" x="53.6640625" class="er attributeBoxOdd"/><text style="dominant-baseline: middle; font-size: 10.2px;" transform="translate(58.6640625,123)" y="0" x="0" id="text-entity-UserPermissions-11eadeed-34e2-57e9-b889-d11b5d4e49d3-attr-5-name" class="er entityLabel">manageEvents</text><rect height="22" width="53.6640625" y="134" x="0" class="er attributeBoxEven"/><text style="dominant-baseline: middle; font-size: 10.2px;" transform="translate(5,145)" y="0" x="0" id="text-entity-UserPermissions-11eadeed-34e2-57e9-b889-d11b5d4e49d3-attr-6-type" class="er entityLabel">Boolean</text><rect height="22" width="104.34375" y="134" x="53.6640625" class="er attributeBoxEven"/><text style="dominant-baseline: middle; font-size: 10.2px;" transform="translate(58.6640625,145)" y="0" x="0" id="text-entity-UserPermissions-11eadeed-34e2-57e9-b889-d11b5d4e49d3-attr-6-name" class="er entityLabel">manageClub</text></g><rect height="14" width="82.78125" y="278.2879943847656" x="140.41954040527344" class="er relationshipLabelBox"/><text style="text-anchor: middle; dominant-baseline: middle; font-size: 12px;" y="285.2879943847656" x="181.81016540527344" id="rel1" class="er relationshipLabel">enum:pronouns</text><rect height="14" width="83.7421875" y="318.4418029785156" x="234.392578125" class="er relationshipLabelBox"/><text style="text-anchor: middle; dominant-baseline: middle; font-size: 12px;" y="325.4418029785156" x="276.263671875" id="rel2" class="er relationshipLabel">authentications</text><rect height="14" width="62.2734375" y="331.9682922363281" x="473.1212463378906" class="er relationshipLabelBox"/><text style="text-anchor: middle; dominant-baseline: middle; font-size: 12px;" y="338.9682922363281" x="504.2579650878906" id="rel3" class="er relationshipLabel">permissions</text><rect height="14" width="22.625" y="345.60546875" x="380.6560363769531" class="er relationshipLabelBox"/><text style="text-anchor: middle; dominant-baseline: middle; font-size: 12px;" y="352.60546875" x="391.9685363769531" id="rel4" class="er relationshipLabel">user</text><rect height="14" width="22.625" y="284.385498046875" x="558.3416137695312" class="er relationshipLabelBox"/><text style="text-anchor: middle; dominant-baseline: middle; font-size: 12px;" y="291.385498046875" x="569.6541137695312" id="rel5" class="er relationshipLabel">user</text></svg>