<svg aria-roledescription="er" role="graphics-document document" viewBox="0 0 687.3312377929688 562" style="max-width: 687.331px; background-color: white;" xmlns:xlink="http://www.w3.org/1999/xlink" xmlns="http://www.w3.org/2000/svg" width="100%" id="my-svg"><style>#my-svg{font-family:"trebuchet ms",verdana,arial,sans-serif;font-size:16px;fill:#000000;}#my-svg .error-icon{fill:#552222;}#my-svg .error-text{fill:#552222;stroke:#552222;}#my-svg .edge-thickness-normal{stroke-width:2px;}#my-svg .edge-thickness-thick{stroke-width:3.5px;}#my-svg .edge-pattern-solid{stroke-dasharray:0;}#my-svg .edge-pattern-dashed{stroke-dasharray:3;}#my-svg .edge-pattern-dotted{stroke-dasharray:2;}#my-svg .marker{fill:#000000;stroke:#000000;}#my-svg .marker.cross{stroke:#000000;}#my-svg svg{font-family:"trebuchet ms",verdana,arial,sans-serif;font-size:16px;}#my-svg .entityBox{fill:#cde498;stroke:#13540c;}#my-svg .attributeBoxOdd{fill:#ffffff;stroke:#13540c;}#my-svg .attributeBoxEven{fill:#f2f2f2;stroke:#13540c;}#my-svg .relationshipLabelBox{fill:hsl(78.1578947368, 58.4615384615%, 84.5098039216%);opacity:0.7;background-color:hsl(78.1578947368, 58.4615384615%, 84.5098039216%);}#my-svg .relationshipLabelBox rect{opacity:0.5;}#my-svg .relationshipLine{stroke:#000000;}#my-svg .entityTitleText{text-anchor:middle;font-size:18px;fill:#000000;}#my-svg #MD_PARENT_START{fill:#f5f5f5!important;stroke:#000000!important;stroke-width:1;}#my-svg #MD_PARENT_END{fill:#f5f5f5!important;stroke:#000000!important;stroke-width:1;}#my-svg :root{--mermaid-font-family:"trebuchet ms",verdana,arial,sans-serif;}</style><g/><defs><marker orient="auto" markerHeight="240" markerWidth="190" refY="7" refX="0" id="MD_PARENT_START"><path d="M 18,7 L9,13 L1,7 L9,1 Z"/></marker></defs><defs><marker orient="auto" markerHeight="28" markerWidth="20" refY="7" refX="19" id="MD_PARENT_END"><path d="M 18,7 L9,13 L1,7 L9,1 Z"/></marker></defs><defs><marker orient="auto" markerHeight="18" markerWidth="18" refY="9" refX="0" id="ONLY_ONE_START"><path d="M9,0 L9,18 M15,0 L15,18" fill="none" stroke="gray"/></marker></defs><defs><marker orient="auto" markerHeight="18" markerWidth="18" refY="9" refX="18" id="ONLY_ONE_END"><path d="M3,0 L3,18 M9,0 L9,18" fill="none" stroke="gray"/></marker></defs><defs><marker orient="auto" markerHeight="18" markerWidth="30" refY="9" refX="0" id="ZERO_OR_ONE_START"><circle r="6" cy="9" cx="21" fill="white" stroke="gray"/><path d="M9,0 L9,18" fill="none" stroke="gray"/></marker></defs><defs><marker orient="auto" markerHeight="18" markerWidth="30" refY="9" refX="30" id="ZERO_OR_ONE_END"><circle r="6" cy="9" cx="9" fill="white" stroke="gray"/><path d="M21,0 L21,18" fill="none" stroke="gray"/></marker></defs><defs><marker orient="auto" markerHeight="36" markerWidth="45" refY="18" refX="18" id="ONE_OR_MORE_START"><path d="M0,18 Q 18,0 36,18 Q 18,36 0,18 M42,9 L42,27" fill="none" stroke="gray"/></marker></defs><defs><marker orient="auto" markerHeight="36" markerWidth="45" refY="18" refX="27" id="ONE_OR_MORE_END"><path d="M3,9 L3,27 M9,18 Q27,0 45,18 Q27,36 9,18" fill="none" stroke="gray"/></marker></defs><defs><marker orient="auto" markerHeight="36" markerWidth="57" refY="18" refX="18" id="ZERO_OR_MORE_START"><circle r="6" cy="18" cx="48" fill="white" stroke="gray"/><path d="M0,18 Q18,0 36,18 Q18,36 0,18" fill="none" stroke="gray"/></marker></defs><defs><marker orient="auto" markerHeight="36" markerWidth="57" refY="18" refX="39" id="ZERO_OR_MORE_END"><circle r="6" cy="18" cx="9" fill="white" stroke="gray"/><path d="M21,18 Q39,0 57,18 Q39,36 21,18" fill="none" stroke="gray"/></marker></defs><path style="stroke: gray; fill: none;" marker-start="url(#ZERO_OR_ONE_START)" marker-end="url(#ZERO_OR_ONE_END)" d="M329.9048957824707,197.84648429547087L289.30149904886883,220.87207024622572C248.69810231526694,243.8976561969806,167.49130884806314,289.9488280984903,126.88791211446126,324.9744140492451C86.28451538085938,360,86.28451538085938,384,86.28451538085938,396L86.28451538085938,408" class="er relationshipLine"/><path style="stroke: gray; fill: none;" marker-start="url(#ZERO_OR_MORE_START)" marker-end="url(#ZERO_OR_MORE_END)" d="M329.9048957824707,249.03454141318326L317.96918869018555,263.52878451098604C306.0334815979004,278.0230276087888,282.1620674133301,307.0115138043944,276.9769357442856,333.5057569021972C271.7918040752411,360,285.2929549217224,384,292.0435303449631,396L298.79410576820374,408" class="er relationshipLine"/><path style="stroke: gray; fill: none;" marker-start="url(#ZERO_OR_MORE_START)" marker-end="url(#ZERO_OR_MORE_END)" d="M481.6649346481907,286L486.21866871012145,294.3333333333333C490.7724027720522,302.6666666666667,499.8798708959138,319.3333333333333,509.55668750622453,336C519.2335041165352,352.6666666666667,529.479669213295,369.3333333333333,534.6027517616749,377.6666666666667L539.7258343100548,386" class="er relationshipLine"/><path style="stroke: gray; fill: none;" marker-start="url(#ZERO_OR_ONE_START)" marker-end="url(#ONLY_ONE_END)" d="M364.72390580177307,408L372.1011446714401,396C379.4783835411072,384,394.2328612804413,360,401.61010015010834,339.6666666666667C408.9873390197754,319.3333333333333,408.9873390197754,302.6666666666667,408.9873390197754,294.3333333333333L408.9873390197754,286" class="er relationshipLine"/><path style="stroke: gray; fill: none;" marker-start="url(#ZERO_OR_ONE_START)" marker-end="url(#ONLY_ONE_END)" d="M618.1466369628906,386L621.401845296224,377.6666666666667C624.6570536295573,369.3333333333333,631.167470296224,352.6666666666667,609.4879945119222,324.3804002778656C587.8085187276205,296.0941338890645,537.9391504923502,256.18826777812893,513.0044663747152,236.23533472266115L488.0697822570801,216.28240166719337" class="er relationshipLine"/><g transform="translate(129.9048957824707,119 )" id="entity-ProviderType-dafe6976-97f2-565c-9bcf-a9c639f33df4"><rect height="68" width="100" y="0" x="0" class="er entityBox"/><text style="dominant-baseline: middle; text-anchor: middle; font-size: 12px;" transform="translate(50,12)" y="0" x="0" id="text-entity-ProviderType-dafe6976-97f2-565c-9bcf-a9c639f33df4" class="er entityLabel">ProviderType</text><rect height="22" width="50" y="24" x="0" class="er attributeBoxOdd"/><text style="dominant-baseline: middle; font-size: 10.2px;" transform="translate(5,35)" y="0" x="0" id="text-entity-ProviderType-dafe6976-97f2-565c-9bcf-a9c639f33df4-attr-1-type" class="er entityLabel">OIDC</text><rect height="22" width="50" y="24" x="50" class="er attributeBoxOdd"/><text style="dominant-baseline: middle; font-size: 10.2px;" transform="translate(55,35)" y="0" x="0" id="text-entity-ProviderType-dafe6976-97f2-565c-9bcf-a9c639f33df4-attr-1-name" class="er entityLabel">OIDC</text><rect height="22" width="50" y="46" x="0" class="er attributeBoxEven"/><text style="dominant-baseline: middle; font-size: 10.2px;" transform="translate(5,57)" y="0" x="0" id="text-entity-ProviderType-dafe6976-97f2-565c-9bcf-a9c639f33df4-attr-2-type" class="er entityLabel">OAUTH2</text><rect height="22" width="50" y="46" x="50" class="er attributeBoxEven"/><text style="dominant-baseline: middle; font-size: 10.2px;" transform="translate(55,57)" y="0" x="0" id="text-entity-ProviderType-dafe6976-97f2-565c-9bcf-a9c639f33df4-attr-2-name" class="er entityLabel">OAUTH2</text></g><g transform="translate(20,408 )" id="entity-Pronouns-e56d72c9-e519-5ea0-bda9-5ec2816bf931"><rect height="112" width="132.56903076171875" y="0" x="0" class="er entityBox"/><text style="dominant-baseline: middle; text-anchor: middle; font-size: 12px;" transform="translate(66.28451538085938,12)" y="0" x="0" id="text-entity-Pronouns-e56d72c9-e519-5ea0-bda9-5ec2816bf931" class="er entityLabel">Pronouns</text><rect height="22" width="66.28451538085938" y="24" x="0" class="er attributeBoxOdd"/><text style="dominant-baseline: middle; font-size: 10.2px;" transform="translate(5,35)" y="0" x="0" id="text-entity-Pronouns-e56d72c9-e519-5ea0-bda9-5ec2816bf931-attr-1-type" class="er entityLabel">HE_HIM</text><rect height="22" width="66.28451538085938" y="24" x="66.28451538085938" class="er attributeBoxOdd"/><text style="dominant-baseline: middle; font-size: 10.2px;" transform="translate(71.28451538085938,35)" y="0" x="0" id="text-entity-Pronouns-e56d72c9-e519-5ea0-bda9-5ec2816bf931-attr-1-name" class="er entityLabel">HE_HIM</text><rect height="22" width="66.28451538085938" y="46" x="0" class="er attributeBoxEven"/><text style="dominant-baseline: middle; font-size: 10.2px;" transform="translate(5,57)" y="0" x="0" id="text-entity-Pronouns-e56d72c9-e519-5ea0-bda9-5ec2816bf931-attr-2-type" class="er entityLabel">SHE_HER</text><rect height="22" width="66.28451538085938" y="46" x="66.28451538085938" class="er attributeBoxEven"/><text style="dominant-baseline: middle; font-size: 10.2px;" transform="translate(71.28451538085938,57)" y="0" x="0" id="text-entity-Pronouns-e56d72c9-e519-5ea0-bda9-5ec2816bf931-attr-2-name" class="er entityLabel">SHE_HER</text><rect height="22" width="66.28451538085938" y="68" x="0" class="er attributeBoxOdd"/><text style="dominant-baseline: middle; font-size: 10.2px;" transform="translate(5,79)" y="0" x="0" id="text-entity-Pronouns-e56d72c9-e519-5ea0-bda9-5ec2816bf931-attr-3-type" class="er entityLabel">THEY_THEM</text><rect height="22" width="66.28451538085938" y="68" x="66.28451538085938" class="er attributeBoxOdd"/><text style="dominant-baseline: middle; font-size: 10.2px;" transform="translate(71.28451538085938,79)" y="0" x="0" id="text-entity-Pronouns-e56d72c9-e519-5ea0-bda9-5ec2816bf931-attr-3-name" class="er entityLabel">THEY_THEM</text><rect height="22" width="66.28451538085938" y="90" x="0" class="er attributeBoxEven"/><text style="dominant-baseline: middle; font-size: 10.2px;" transform="translate(5,101)" y="0" x="0" id="text-entity-Pronouns-e56d72c9-e519-5ea0-bda9-5ec2816bf931-attr-4-type" class="er entityLabel">OTHER</text><rect height="22" width="66.28451538085938" y="90" x="66.28451538085938" class="er attributeBoxEven"/><text style="dominant-baseline: middle; font-size: 10.2px;" transform="translate(71.28451538085938,101)" y="0" x="0" id="text-entity-Pronouns-e56d72c9-e519-5ea0-bda9-5ec2816bf931-attr-4-name" class="er entityLabel">OTHER</text></g><g transform="translate(329.9048957824707,20 )" id="entity-User-818c511a-4a32-5484-ba70-875d765a9175"><rect height="266" width="158.16488647460938" y="0" x="0" class="er entityBox"/><text style="dominant-baseline: middle; text-anchor: middle; font-size: 12px;" transform="translate(79.08244323730469,12)" y="0" x="0" id="text-entity-User-818c511a-4a32-5484-ba70-875d765a9175" class="er entityLabel">User</text><rect height="22" width="54.095550537109375" y="24" x="0" class="er attributeBoxOdd"/><text style="dominant-baseline: middle; font-size: 10.2px;" transform="translate(5,35)" y="0" x="0" id="text-entity-User-818c511a-4a32-5484-ba70-875d765a9175-attr-1-type" class="er entityLabel">String</text><rect height="22" width="80.0537109375" y="24" x="54.095550537109375" class="er attributeBoxOdd"/><text style="dominant-baseline: middle; font-size: 10.2px;" transform="translate(59.095550537109375,35)" y="0" x="0" id="text-entity-User-818c511a-4a32-5484-ba70-875d765a9175-attr-1-name" class="er entityLabel">id</text><rect height="22" width="24.015625" y="24" x="134.14926147460938" class="er attributeBoxOdd"/><text style="dominant-baseline: middle; font-size: 10.2px;" transform="translate(139.14926147460938,35)" y="0" x="0" id="text-entity-User-818c511a-4a32-5484-ba70-875d765a9175-attr-1-comment" class="er entityLabel">🗝️</text><rect height="22" width="54.095550537109375" y="46" x="0" class="er attributeBoxEven"/><text style="dominant-baseline: middle; font-size: 10.2px;" transform="translate(5,57)" y="0" x="0" id="text-entity-User-818c511a-4a32-5484-ba70-875d765a9175-attr-2-type" class="er entityLabel">DateTime</text><rect height="22" width="80.0537109375" y="46" x="54.095550537109375" class="er attributeBoxEven"/><text style="dominant-baseline: middle; font-size: 10.2px;" transform="translate(59.095550537109375,57)" y="0" x="0" id="text-entity-User-818c511a-4a32-5484-ba70-875d765a9175-attr-2-name" class="er entityLabel">createdAt</text><rect height="22" width="24.015625" y="46" x="134.14926147460938" class="er attributeBoxEven"/><text style="dominant-baseline: middle; font-size: 10.2px;" transform="translate(139.14926147460938,57)" y="0" x="0" id="text-entity-User-818c511a-4a32-5484-ba70-875d765a9175-attr-2-comment" class="er entityLabel"/><rect height="22" width="54.095550537109375" y="68" x="0" class="er attributeBoxOdd"/><text style="dominant-baseline: middle; font-size: 10.2px;" transform="translate(5,79)" y="0" x="0" id="text-entity-User-818c511a-4a32-5484-ba70-875d765a9175-attr-3-type" class="er entityLabel">DateTime</text><rect height="22" width="80.0537109375" y="68" x="54.095550537109375" class="er attributeBoxOdd"/><text style="dominant-baseline: middle; font-size: 10.2px;" transform="translate(59.095550537109375,79)" y="0" x="0" id="text-entity-User-818c511a-4a32-5484-ba70-875d765a9175-attr-3-name" class="er entityLabel">updatedAt</text><rect height="22" width="24.015625" y="68" x="134.14926147460938" class="er attributeBoxOdd"/><text style="dominant-baseline: middle; font-size: 10.2px;" transform="translate(139.14926147460938,79)" y="0" x="0" id="text-entity-User-818c511a-4a32-5484-ba70-875d765a9175-attr-3-comment" class="er entityLabel"/><rect height="22" width="54.095550537109375" y="90" x="0" class="er attributeBoxEven"/><text style="dominant-baseline: middle; font-size: 10.2px;" transform="translate(5,101)" y="0" x="0" id="text-entity-User-818c511a-4a32-5484-ba70-875d765a9175-attr-4-type" class="er entityLabel">String</text><rect height="22" width="80.0537109375" y="90" x="54.095550537109375" class="er attributeBoxEven"/><text style="dominant-baseline: middle; font-size: 10.2px;" transform="translate(59.095550537109375,101)" y="0" x="0" id="text-entity-User-818c511a-4a32-5484-ba70-875d765a9175-attr-4-name" class="er entityLabel">email</text><rect height="22" width="24.015625" y="90" x="134.14926147460938" class="er attributeBoxEven"/><text style="dominant-baseline: middle; font-size: 10.2px;" transform="translate(139.14926147460938,101)" y="0" x="0" id="text-entity-User-818c511a-4a32-5484-ba70-875d765a9175-attr-4-comment" class="er entityLabel"/><rect height="22" width="54.095550537109375" y="112" x="0" class="er attributeBoxOdd"/><text style="dominant-baseline: middle; font-size: 10.2px;" transform="translate(5,123)" y="0" x="0" id="text-entity-User-818c511a-4a32-5484-ba70-875d765a9175-attr-5-type" class="er entityLabel">String</text><rect height="22" width="80.0537109375" y="112" x="54.095550537109375" class="er attributeBoxOdd"/><text style="dominant-baseline: middle; font-size: 10.2px;" transform="translate(59.095550537109375,123)" y="0" x="0" id="text-entity-User-818c511a-4a32-5484-ba70-875d765a9175-attr-5-name" class="er entityLabel">preferredName</text><rect height="22" width="24.015625" y="112" x="134.14926147460938" class="er attributeBoxOdd"/><text style="dominant-baseline: middle; font-size: 10.2px;" transform="translate(139.14926147460938,123)" y="0" x="0" id="text-entity-User-818c511a-4a32-5484-ba70-875d765a9175-attr-5-comment" class="er entityLabel">❓</text><rect height="22" width="54.095550537109375" y="134" x="0" class="er attributeBoxEven"/><text style="dominant-baseline: middle; font-size: 10.2px;" transform="translate(5,145)" y="0" x="0" id="text-entity-User-818c511a-4a32-5484-ba70-875d765a9175-attr-6-type" class="er entityLabel">String</text><rect height="22" width="80.0537109375" y="134" x="54.095550537109375" class="er attributeBoxEven"/><text style="dominant-baseline: middle; font-size: 10.2px;" transform="translate(59.095550537109375,145)" y="0" x="0" id="text-entity-User-818c511a-4a32-5484-ba70-875d765a9175-attr-6-name" class="er entityLabel">firstName</text><rect height="22" width="24.015625" y="134" x="134.14926147460938" class="er attributeBoxEven"/><text style="dominant-baseline: middle; font-size: 10.2px;" transform="translate(139.14926147460938,145)" y="0" x="0" id="text-entity-User-818c511a-4a32-5484-ba70-875d765a9175-attr-6-comment" class="er entityLabel"/><rect height="22" width="54.095550537109375" y="156" x="0" class="er attributeBoxOdd"/><text style="dominant-baseline: middle; font-size: 10.2px;" transform="translate(5,167)" y="0" x="0" id="text-entity-User-818c511a-4a32-5484-ba70-875d765a9175-attr-7-type" class="er entityLabel">String</text><rect height="22" width="80.0537109375" y="156" x="54.095550537109375" class="er attributeBoxOdd"/><text style="dominant-baseline: middle; font-size: 10.2px;" transform="translate(59.095550537109375,167)" y="0" x="0" id="text-entity-User-818c511a-4a32-5484-ba70-875d765a9175-attr-7-name" class="er entityLabel">lastName</text><rect height="22" width="24.015625" y="156" x="134.14926147460938" class="er attributeBoxOdd"/><text style="dominant-baseline: middle; font-size: 10.2px;" transform="translate(139.14926147460938,167)" y="0" x="0" id="text-entity-User-818c511a-4a32-5484-ba70-875d765a9175-attr-7-comment" class="er entityLabel"/><rect height="22" width="54.095550537109375" y="178" x="0" class="er attributeBoxEven"/><text style="dominant-baseline: middle; font-size: 10.2px;" transform="translate(5,189)" y="0" x="0" id="text-entity-User-818c511a-4a32-5484-ba70-875d765a9175-attr-8-type" class="er entityLabel">Pronouns</text><rect height="22" width="80.0537109375" y="178" x="54.095550537109375" class="er attributeBoxEven"/><text style="dominant-baseline: middle; font-size: 10.2px;" transform="translate(59.095550537109375,189)" y="0" x="0" id="text-entity-User-818c511a-4a32-5484-ba70-875d765a9175-attr-8-name" class="er entityLabel">pronouns</text><rect height="22" width="24.015625" y="178" x="134.14926147460938" class="er attributeBoxEven"/><text style="dominant-baseline: middle; font-size: 10.2px;" transform="translate(139.14926147460938,189)" y="0" x="0" id="text-entity-User-818c511a-4a32-5484-ba70-875d765a9175-attr-8-comment" class="er entityLabel">❓</text><rect height="22" width="54.095550537109375" y="200" x="0" class="er attributeBoxOdd"/><text style="dominant-baseline: middle; font-size: 10.2px;" transform="translate(5,211)" y="0" x="0" id="text-entity-User-818c511a-4a32-5484-ba70-875d765a9175-attr-9-type" class="er entityLabel">String</text><rect height="22" width="80.0537109375" y="200" x="54.095550537109375" class="er attributeBoxOdd"/><text style="dominant-baseline: middle; font-size: 10.2px;" transform="translate(59.095550537109375,211)" y="0" x="0" id="text-entity-User-818c511a-4a32-5484-ba70-875d765a9175-attr-9-name" class="er entityLabel">otherPronouns</text><rect height="22" width="24.015625" y="200" x="134.14926147460938" class="er attributeBoxOdd"/><text style="dominant-baseline: middle; font-size: 10.2px;" transform="translate(139.14926147460938,211)" y="0" x="0" id="text-entity-User-818c511a-4a32-5484-ba70-875d765a9175-attr-9-comment" class="er entityLabel">❓</text><rect height="22" width="54.095550537109375" y="222" x="0" class="er attributeBoxEven"/><text style="dominant-baseline: middle; font-size: 10.2px;" transform="translate(5,233)" y="0" x="0" id="text-entity-User-818c511a-4a32-5484-ba70-875d765a9175-attr-10-type" class="er entityLabel">String</text><rect height="22" width="80.0537109375" y="222" x="54.095550537109375" class="er attributeBoxEven"/><text style="dominant-baseline: middle; font-size: 10.2px;" transform="translate(59.095550537109375,233)" y="0" x="0" id="text-entity-User-818c511a-4a32-5484-ba70-875d765a9175-attr-10-name" class="er entityLabel">avatarUrl</text><rect height="22" width="24.015625" y="222" x="134.14926147460938" class="er attributeBoxEven"/><text style="dominant-baseline: middle; font-size: 10.2px;" transform="translate(139.14926147460938,233)" y="0" x="0" id="text-entity-User-818c511a-4a32-5484-ba70-875d765a9175-attr-10-comment" class="er entityLabel">❓</text><rect height="22" width="54.095550537109375" y="244" x="0" class="er attributeBoxOdd"/><text style="dominant-baseline: middle; font-size: 10.2px;" transform="translate(5,255)" y="0" x="0" id="text-entity-User-818c511a-4a32-5484-ba70-875d765a9175-attr-11-type" class="er entityLabel">Boolean</text><rect height="22" width="80.0537109375" y="244" x="54.095550537109375" class="er attributeBoxOdd"/><text style="dominant-baseline: middle; font-size: 10.2px;" transform="translate(59.095550537109375,255)" y="0" x="0" id="text-entity-User-818c511a-4a32-5484-ba70-875d765a9175-attr-11-name" class="er entityLabel">superuser</text><rect height="22" width="24.015625" y="244" x="134.14926147460938" class="er attributeBoxOdd"/><text style="dominant-baseline: middle; font-size: 10.2px;" transform="translate(139.14926147460938,255)" y="0" x="0" id="text-entity-User-818c511a-4a32-5484-ba70-875d765a9175-attr-11-comment" class="er entityLabel"/></g><g transform="translate(252.56903076171875,408 )" id="entity-UserAuthentication-bd197d83-1cd4-5e1d-8243-7cb1c705c199"><rect height="112" width="155.4555206298828" y="0" x="0" class="er entityBox"/><text style="dominant-baseline: middle; text-anchor: middle; font-size: 12px;" transform="translate(77.7277603149414,12)" y="0" x="0" id="text-entity-UserAuthentication-bd197d83-1cd4-5e1d-8243-7cb1c705c199" class="er entityLabel">UserAuthentication</text><rect height="22" width="54.095550537109375" y="24" x="0" class="er attributeBoxOdd"/><text style="dominant-baseline: middle; font-size: 10.2px;" transform="translate(5,35)" y="0" x="0" id="text-entity-UserAuthentication-bd197d83-1cd4-5e1d-8243-7cb1c705c199-attr-1-type" class="er entityLabel">DateTime</text><rect height="22" width="77.34434509277344" y="24" x="54.095550537109375" class="er attributeBoxOdd"/><text style="dominant-baseline: middle; font-size: 10.2px;" transform="translate(59.095550537109375,35)" y="0" x="0" id="text-entity-UserAuthentication-bd197d83-1cd4-5e1d-8243-7cb1c705c199-attr-1-name" class="er entityLabel">createdAt</text><rect height="22" width="24.015625" y="24" x="131.4398956298828" class="er attributeBoxOdd"/><text style="dominant-baseline: middle; font-size: 10.2px;" transform="translate(136.4398956298828,35)" y="0" x="0" id="text-entity-UserAuthentication-bd197d83-1cd4-5e1d-8243-7cb1c705c199-attr-1-comment" class="er entityLabel"/><rect height="22" width="54.095550537109375" y="46" x="0" class="er attributeBoxEven"/><text style="dominant-baseline: middle; font-size: 10.2px;" transform="translate(5,57)" y="0" x="0" id="text-entity-UserAuthentication-bd197d83-1cd4-5e1d-8243-7cb1c705c199-attr-2-type" class="er entityLabel">DateTime</text><rect height="22" width="77.34434509277344" y="46" x="54.095550537109375" class="er attributeBoxEven"/><text style="dominant-baseline: middle; font-size: 10.2px;" transform="translate(59.095550537109375,57)" y="0" x="0" id="text-entity-UserAuthentication-bd197d83-1cd4-5e1d-8243-7cb1c705c199-attr-2-name" class="er entityLabel">updatedAt</text><rect height="22" width="24.015625" y="46" x="131.4398956298828" class="er attributeBoxEven"/><text style="dominant-baseline: middle; font-size: 10.2px;" transform="translate(136.4398956298828,57)" y="0" x="0" id="text-entity-UserAuthentication-bd197d83-1cd4-5e1d-8243-7cb1c705c199-attr-2-comment" class="er entityLabel"/><rect height="22" width="54.095550537109375" y="68" x="0" class="er attributeBoxOdd"/><text style="dominant-baseline: middle; font-size: 10.2px;" transform="translate(5,79)" y="0" x="0" id="text-entity-UserAuthentication-bd197d83-1cd4-5e1d-8243-7cb1c705c199-attr-3-type" class="er entityLabel">String</text><rect height="22" width="77.34434509277344" y="68" x="54.095550537109375" class="er attributeBoxOdd"/><text style="dominant-baseline: middle; font-size: 10.2px;" transform="translate(59.095550537109375,79)" y="0" x="0" id="text-entity-UserAuthentication-bd197d83-1cd4-5e1d-8243-7cb1c705c199-attr-3-name" class="er entityLabel">provider</text><rect height="22" width="24.015625" y="68" x="131.4398956298828" class="er attributeBoxOdd"/><text style="dominant-baseline: middle; font-size: 10.2px;" transform="translate(136.4398956298828,79)" y="0" x="0" id="text-entity-UserAuthentication-bd197d83-1cd4-5e1d-8243-7cb1c705c199-attr-3-comment" class="er entityLabel">🗝️</text><rect height="22" width="54.095550537109375" y="90" x="0" class="er attributeBoxEven"/><text style="dominant-baseline: middle; font-size: 10.2px;" transform="translate(5,101)" y="0" x="0" id="text-entity-UserAuthentication-bd197d83-1cd4-5e1d-8243-7cb1c705c199-attr-4-type" class="er entityLabel">String</text><rect height="22" width="77.34434509277344" y="90" x="54.095550537109375" class="er attributeBoxEven"/><text style="dominant-baseline: middle; font-size: 10.2px;" transform="translate(59.095550537109375,101)" y="0" x="0" id="text-entity-UserAuthentication-bd197d83-1cd4-5e1d-8243-7cb1c705c199-attr-4-name" class="er entityLabel">providerUserId</text><rect height="22" width="24.015625" y="90" x="131.4398956298828" class="er attributeBoxEven"/><text style="dominant-baseline: middle; font-size: 10.2px;" transform="translate(136.4398956298828,101)" y="0" x="0" id="text-entity-UserAuthentication-bd197d83-1cd4-5e1d-8243-7cb1c705c199-attr-4-comment" class="er entityLabel">🗝️</text></g><g transform="translate(508.02455139160156,386 )" id="entity-UserPermissions-11eadeed-34e2-57e9-b889-d11b5d4e49d3"><rect height="156" width="159.30667114257812" y="0" x="0" class="er entityBox"/><text style="dominant-baseline: middle; text-anchor: middle; font-size: 12px;" transform="translate(79.65333557128906,12)" y="0" x="0" id="text-entity-UserPermissions-11eadeed-34e2-57e9-b889-d11b5d4e49d3" class="er entityLabel">UserPermissions</text><rect height="22" width="54.095550537109375" y="24" x="0" class="er attributeBoxOdd"/><text style="dominant-baseline: middle; font-size: 10.2px;" transform="translate(5,35)" y="0" x="0" id="text-entity-UserPermissions-11eadeed-34e2-57e9-b889-d11b5d4e49d3-attr-1-type" class="er entityLabel">DateTime</text><rect height="22" width="105.21112060546875" y="24" x="54.095550537109375" class="er attributeBoxOdd"/><text style="dominant-baseline: middle; font-size: 10.2px;" transform="translate(59.095550537109375,35)" y="0" x="0" id="text-entity-UserPermissions-11eadeed-34e2-57e9-b889-d11b5d4e49d3-attr-1-name" class="er entityLabel">createdAt</text><rect height="22" width="54.095550537109375" y="46" x="0" class="er attributeBoxEven"/><text style="dominant-baseline: middle; font-size: 10.2px;" transform="translate(5,57)" y="0" x="0" id="text-entity-UserPermissions-11eadeed-34e2-57e9-b889-d11b5d4e49d3-attr-2-type" class="er entityLabel">DateTime</text><rect height="22" width="105.21112060546875" y="46" x="54.095550537109375" class="er attributeBoxEven"/><text style="dominant-baseline: middle; font-size: 10.2px;" transform="translate(59.095550537109375,57)" y="0" x="0" id="text-entity-UserPermissions-11eadeed-34e2-57e9-b889-d11b5d4e49d3-attr-2-name" class="er entityLabel">updatedAt</text><rect height="22" width="54.095550537109375" y="68" x="0" class="er attributeBoxOdd"/><text style="dominant-baseline: middle; font-size: 10.2px;" transform="translate(5,79)" y="0" x="0" id="text-entity-UserPermissions-11eadeed-34e2-57e9-b889-d11b5d4e49d3-attr-3-type" class="er entityLabel">Boolean</text><rect height="22" width="105.21112060546875" y="68" x="54.095550537109375" class="er attributeBoxOdd"/><text style="dominant-baseline: middle; font-size: 10.2px;" transform="translate(59.095550537109375,79)" y="0" x="0" id="text-entity-UserPermissions-11eadeed-34e2-57e9-b889-d11b5d4e49d3-attr-3-name" class="er entityLabel">manageMembers</text><rect height="22" width="54.095550537109375" y="90" x="0" class="er attributeBoxEven"/><text style="dominant-baseline: middle; font-size: 10.2px;" transform="translate(5,101)" y="0" x="0" id="text-entity-UserPermissions-11eadeed-34e2-57e9-b889-d11b5d4e49d3-attr-4-type" class="er entityLabel">Boolean</text><rect height="22" width="105.21112060546875" y="90" x="54.095550537109375" class="er attributeBoxEven"/><text style="dominant-baseline: middle; font-size: 10.2px;" transform="translate(59.095550537109375,101)" y="0" x="0" id="text-entity-UserPermissions-11eadeed-34e2-57e9-b889-d11b5d4e49d3-attr-4-name" class="er entityLabel">manageMemberships</text><rect height="22" width="54.095550537109375" y="112" x="0" class="er attributeBoxOdd"/><text style="dominant-baseline: middle; font-size: 10.2px;" transform="translate(5,123)" y="0" x="0" id="text-entity-UserPermissions-11eadeed-34e2-57e9-b889-d11b5d4e49d3-attr-5-type" class="er entityLabel">Boolean</text><rect height="22" width="105.21112060546875" y="112" x="54.095550537109375" class="er attributeBoxOdd"/><text style="dominant-baseline: middle; font-size: 10.2px;" transform="translate(59.095550537109375,123)" y="0" x="0" id="text-entity-UserPermissions-11eadeed-34e2-57e9-b889-d11b5d4e49d3-attr-5-name" class="er entityLabel">manageEvents</text><rect height="22" width="54.095550537109375" y="134" x="0" class="er attributeBoxEven"/><text style="dominant-baseline: middle; font-size: 10.2px;" transform="translate(5,145)" y="0" x="0" id="text-entity-UserPermissions-11eadeed-34e2-57e9-b889-d11b5d4e49d3-attr-6-type" class="er entityLabel">Boolean</text><rect height="22" width="105.21112060546875" y="134" x="54.095550537109375" class="er attributeBoxEven"/><text style="dominant-baseline: middle; font-size: 10.2px;" transform="translate(59.095550537109375,145)" y="0" x="0" id="text-entity-UserPermissions-11eadeed-34e2-57e9-b889-d11b5d4e49d3-attr-6-name" class="er entityLabel">manageClub</text></g><rect height="14" width="82.923828125" y="276.08392333984375" x="143.3814697265625" class="er relationshipLabelBox"/><text style="text-anchor: middle; dominant-baseline: middle; font-size: 12px;" y="283.08392333984375" x="184.8433837890625" id="rel1" class="er relationshipLabel">enum:pronouns</text><rect height="14" width="83.87890625" y="316.32855224609375" x="237.85360717773438" class="er relationshipLabelBox"/><text style="text-anchor: middle; dominant-baseline: middle; font-size: 12px;" y="323.32855224609375" x="279.7930603027344" id="rel2" class="er relationshipLabel">authentications</text><rect height="14" width="62.41015625" y="329.493896484375" x="478.639404296875" class="er relationshipLabelBox"/><text style="text-anchor: middle; dominant-baseline: middle; font-size: 12px;" y="336.493896484375" x="509.844482421875" id="rel3" class="er relationshipLabel">permissions</text><rect height="14" width="23.958984375" y="343.4316101074219" x="385.23199462890625" class="er relationshipLabelBox"/><text style="text-anchor: middle; dominant-baseline: middle; font-size: 12px;" y="350.4316101074219" x="397.21148681640625" id="rel4" class="er relationshipLabel">user</text><rect height="14" width="23.958984375" y="282.5607604980469" x="564.2869873046875" class="er relationshipLabelBox"/><text style="text-anchor: middle; dominant-baseline: middle; font-size: 12px;" y="289.5607604980469" x="576.2664794921875" id="rel5" class="er relationshipLabel">user</text></svg>